# xmcd
#
# Track frame offsets:
#	182
#	13490
#	26617
#	39792
#	57557
#	69342
#	81095
#	93410
#	105305
#	119980
#	133642
#	147137
#
# Disc length: 2145 seconds
#
# Revision: 0
# Processed by: cddbd v1.4PL0 Copyright (c) Steve Scherf et al.
# Submitted via: dBpowerAMP V4.0
#
DISCID=a3085f0c
DTITLE=Sam and Dave - Greatest Hits
DYEAR=1900
DGENRE=Blues
TTITLE0=Soul Man
TTITLE1=I Thank You
TTITLE2=(Sittin' On) The Dock Of The Bay
TTITLE3=Cupid
TTITLE4=Soothe Me
TTITLE5=Soul Sister, Brown Sugar
TTITLE6=You Don't Know Like I Know
TTITLE7=Hold On! I'm Comin'
TTITLE8=When Something Is Wrong With My Baby
TTITLE9=Don't Pull Your Love
TTITLE10=Gimme Some Lovin'
TTITLE11=Summertime
EXTD=
EXTT0=
EXTT1=
EXTT2=
EXTT3=
EXTT4=
EXTT5=
EXTT6=
EXTT7=
EXTT8=
EXTT9=
EXTT10=
EXTT11=
PLAYORDER=
